<?xml version="1.0" encoding="utf-8"?>
<!-- Generator: Adobe Illustrator 26.1.0, SVG Export Plug-In . SVG Version: 6.00 Build 0)  -->
<svg version="1.1" id="Layer_1" xmlns="http://www.w3.org/2000/svg" xmlns:xlink="http://www.w3.org/1999/xlink" x="0px" y="0px"
	 viewBox="0 0 710 273.92" style="enable-background:new 0 0 710 273.92;" xml:space="preserve">
<style type="text/css">
	.st0{fill:#FFFFFF;}
	.st1{fill:#BD8D51;}
	.st2{fill:#1B2330;}
</style>
<g>
	<g>
		<path class="st0" d="M349.1,214.61c-1.77-1.09-3.77-1.63-5.98-1.63H326.4v42.26h4.71v-16.66h12.01c2.21,0,4.2-0.57,5.98-1.72
			c1.77-1.15,3.18-2.7,4.23-4.65c1.05-1.95,1.57-4.17,1.57-6.67c0-2.37-0.52-4.52-1.57-6.43C352.28,217.2,350.87,215.7,349.1,214.61
			z M349.1,229.86c-0.6,1.27-1.4,2.28-2.38,3.02c-0.99,0.75-2.1,1.12-3.35,1.12h-12.26v-16.42h12.26c1.25,0,2.37,0.35,3.35,1.06
			c0.98,0.71,1.78,1.65,2.38,2.84c0.6,1.19,0.91,2.53,0.91,4.01C350.01,227.13,349.7,228.59,349.1,229.86z"/>
		<path class="st0" d="M387.98,236.92c1.93-1.11,3.46-2.61,4.59-4.5c1.13-1.89,1.69-4,1.69-6.34c0-2.5-0.58-4.73-1.75-6.7
			c-1.17-1.97-2.75-3.53-4.74-4.68c-1.99-1.15-4.22-1.72-6.67-1.72h-16.54v42.26h4.71v-16.66h11.55l9.52,16.66h5.61l-10.1-17.39
			C386.58,237.6,387.3,237.31,387.98,236.92z M369.26,217.57h11.23c1.73,0,3.27,0.36,4.62,1.09c1.35,0.72,2.4,1.73,3.17,3.02
			s1.15,2.76,1.15,4.41c0,1.53-0.32,2.89-0.97,4.07s-1.53,2.12-2.66,2.81c-1.13,0.69-2.44,1.03-3.93,1.03h-12.62V217.57z"/>
		<path class="st0" d="M436.73,218.69c-1.87-1.95-4.07-3.46-6.58-4.53c-2.52-1.07-5.28-1.6-8.3-1.6c-2.98,0-5.72,0.53-8.24,1.6
			c-2.51,1.07-4.71,2.58-6.58,4.53c-1.87,1.95-3.32,4.25-4.35,6.88c-1.03,2.64-1.54,5.52-1.54,8.66c0,3.14,0.51,6.03,1.54,8.66
			c1.03,2.64,2.47,4.92,4.35,6.85c1.87,1.93,4.06,3.43,6.58,4.5c2.52,1.07,5.26,1.6,8.24,1.6c3.02,0,5.79-0.53,8.3-1.6
			c2.51-1.07,4.71-2.58,6.58-4.53c1.87-1.95,3.32-4.25,4.35-6.88c1.03-2.63,1.54-5.5,1.54-8.6c0-3.14-0.51-6.03-1.54-8.66
			C440.05,222.94,438.6,220.64,436.73,218.69z M436.54,241.03c-0.79,2.07-1.88,3.87-3.29,5.4c-1.41,1.53-3.09,2.71-5.04,3.53
			c-1.95,0.83-4.07,1.24-6.37,1.24c-2.29,0-4.42-0.41-6.37-1.24c-1.95-0.82-3.63-2-5.04-3.53c-1.41-1.53-2.5-3.33-3.26-5.4
			c-0.76-2.07-1.15-4.33-1.15-6.79c0-2.5,0.38-4.78,1.15-6.85c0.76-2.07,1.85-3.87,3.26-5.4c1.41-1.53,3.09-2.72,5.04-3.56
			c1.95-0.85,4.07-1.27,6.37-1.27c2.29,0,4.42,0.42,6.37,1.27s3.63,2.03,5.04,3.56c1.41,1.53,2.5,3.33,3.29,5.4
			c0.78,2.07,1.18,4.36,1.18,6.85C437.72,236.69,437.33,238.95,436.54,241.03z"/>
		<path class="st0" d="M475.09,214.61c-1.77-1.09-3.76-1.63-5.98-1.63h-16.72v42.26h4.71v-16.66h12.01c2.21,0,4.21-0.57,5.98-1.72
			c1.77-1.15,3.18-2.7,4.23-4.65c1.05-1.95,1.57-4.17,1.57-6.67c0-2.37-0.52-4.52-1.57-6.43
			C478.27,217.2,476.86,215.7,475.09,214.61z M475.09,229.86c-0.6,1.27-1.4,2.28-2.38,3.02c-0.99,0.75-2.1,1.12-3.35,1.12H457.1
			v-16.42h12.26c1.25,0,2.36,0.35,3.35,1.06c0.98,0.71,1.78,1.65,2.38,2.84c0.6,1.19,0.91,2.53,0.91,4.01
			C476,227.13,475.69,228.59,475.09,229.86z"/>
		<polygon class="st0" points="490.54,255.24 516.02,255.24 516.02,250.66 495.25,250.66 495.25,235.8 512.76,235.8 512.76,231.22 
			495.25,231.22 495.25,217.57 516.14,217.57 516.14,212.98 490.54,212.98 		"/>
		<path class="st0" d="M550.73,236.92c1.93-1.11,3.46-2.61,4.59-4.5c1.13-1.89,1.69-4,1.69-6.34c0-2.5-0.58-4.73-1.75-6.7
			c-1.17-1.97-2.75-3.53-4.74-4.68c-1.99-1.15-4.22-1.72-6.67-1.72h-16.54v42.26h4.71v-16.66h11.55l9.52,16.66h5.61l-10.1-17.39
			C549.34,237.6,550.06,237.31,550.73,236.92z M532.02,217.57h11.23c1.73,0,3.27,0.36,4.62,1.09c1.35,0.72,2.4,1.73,3.17,3.02
			c0.76,1.29,1.15,2.76,1.15,4.41c0,1.53-0.32,2.89-0.97,4.07s-1.53,2.12-2.66,2.81c-1.13,0.69-2.44,1.03-3.92,1.03h-12.62V217.57z"
			/>
		<polygon class="st0" points="562.14,217.57 574.22,217.57 574.22,255.24 578.93,255.24 578.93,217.57 591.48,217.57 
			591.48,212.98 562.14,212.98 		"/>
		<polygon class="st0" points="598.06,217.45 604.88,217.45 604.88,250.78 598.06,250.78 598.06,255.24 616.41,255.24 
			616.41,250.78 609.59,250.78 609.59,217.45 616.41,217.45 616.41,212.98 598.06,212.98 		"/>
		<polygon class="st0" points="627.46,255.24 652.94,255.24 652.94,250.66 632.17,250.66 632.17,235.8 649.68,235.8 649.68,231.22 
			632.17,231.22 632.17,217.57 653.06,217.57 653.06,212.98 627.46,212.98 		"/>
		<path class="st0" d="M690.52,239.06c-0.63-1.25-1.53-2.34-2.72-3.29c-1.19-0.95-2.62-1.76-4.29-2.45
			c-1.67-0.68-3.55-1.27-5.64-1.75c-1.77-0.4-3.29-0.84-4.56-1.3c-1.27-0.46-2.29-0.99-3.08-1.57c-0.79-0.58-1.36-1.27-1.72-2.05
			c-0.36-0.78-0.54-1.68-0.54-2.69c0-1.37,0.38-2.59,1.15-3.65c0.76-1.07,1.82-1.9,3.17-2.5c1.35-0.6,2.91-0.91,4.68-0.91
			c1.53,0,2.93,0.25,4.19,0.75c1.27,0.5,2.44,1.24,3.5,2.2c1.07,0.97,2.02,2.11,2.87,3.44l3.32-3.26c-0.97-1.57-2.11-2.92-3.44-4.04
			c-1.33-1.13-2.85-1.98-4.56-2.57c-1.71-0.58-3.65-0.88-5.83-0.88c-1.93,0-3.74,0.28-5.43,0.85c-1.69,0.56-3.16,1.36-4.41,2.38
			c-1.25,1.03-2.22,2.24-2.93,3.65c-0.71,1.41-1.06,2.94-1.06,4.59c0,1.73,0.27,3.23,0.82,4.5c0.54,1.27,1.35,2.38,2.41,3.35
			c1.07,0.97,2.37,1.78,3.92,2.45c1.55,0.66,3.35,1.24,5.4,1.72c1.41,0.36,2.69,0.72,3.83,1.09c1.15,0.36,2.16,0.76,3.05,1.21
			c0.88,0.44,1.63,0.95,2.23,1.51c0.6,0.56,1.06,1.21,1.36,1.93c0.3,0.72,0.45,1.55,0.45,2.48c0,1.41-0.42,2.66-1.27,3.74
			c-0.85,1.09-2.01,1.93-3.5,2.54c-1.49,0.6-3.14,0.91-4.95,0.91c-2.5,0-4.74-0.54-6.73-1.63s-3.94-2.98-5.83-5.67l-3.26,3.62
			c1.21,1.77,2.6,3.26,4.17,4.47c1.57,1.21,3.3,2.11,5.19,2.72c1.89,0.6,3.9,0.91,6.04,0.91c2.98,0,5.59-0.52,7.82-1.57
			c2.23-1.05,3.97-2.51,5.22-4.38c1.25-1.87,1.87-4.06,1.87-6.55C691.45,241.74,691.14,240.31,690.52,239.06z"/>
	</g>
	<g>
		<path class="st0" d="M385.78,28.98c-3.37-3.44-7.37-6.11-12-8c-4.62-1.89-9.8-2.83-15.49-2.83H326.4v77.77h31.89
			c5.69,0,10.88-0.94,15.55-2.83c4.66-1.89,8.66-4.56,12-8c3.32-3.45,5.89-7.56,7.67-12.33c1.78-4.78,2.66-10.02,2.66-15.72
			c0-5.78-0.88-11.03-2.66-15.77S389.15,32.43,385.78,28.98z M377.84,66.92c-0.97,2.96-2.39,5.46-4.28,7.5
			c-1.89,2.04-4.17,3.63-6.83,4.78c-2.67,1.15-5.67,1.72-9,1.72h-14.66V33.16h14.66c3.34,0,6.33,0.57,9,1.72
			c2.66,1.15,4.94,2.76,6.83,4.83c1.89,2.08,3.31,4.58,4.28,7.5c0.96,2.93,1.44,6.21,1.44,9.83
			C379.28,60.67,378.8,63.96,377.84,66.92z"/>
		<path class="st0" d="M459.6,65.03c0,3.12-0.72,5.91-2.17,8.39c-1.44,2.48-3.4,4.46-5.89,5.94c-2.48,1.48-5.24,2.22-8.27,2.22
			c-2.97,0-5.65-0.74-8.06-2.22c-2.4-1.48-4.32-3.46-5.72-5.94c-1.41-2.48-2.12-5.27-2.12-8.39V18.04h-16.77v47.99
			c0,5.85,1.4,11.09,4.22,15.72c2.81,4.63,6.69,8.26,11.6,10.89c4.93,2.62,10.54,3.94,16.84,3.94c6.22,0,11.79-1.32,16.72-3.94
			c4.92-2.63,8.79-6.26,11.6-10.89c2.82-4.62,4.22-9.87,4.22-15.72V18.04H459.6V65.03z"/>
		<path class="st0" d="M541.3,94.42c3.3-1,6.17-2.46,8.61-4.39c2.44-1.93,4.29-4.35,5.56-7.28c1.26-2.92,1.89-6.31,1.89-10.16
			c0-3.48-0.7-6.59-2.11-9.33c-1.41-2.74-3.41-5.04-6-6.89c-1.8-1.28-3.85-2.22-6.03-3c2.7-1.18,5.05-2.69,6.7-4.88
			c2.22-2.96,3.34-6.66,3.34-11.11c0-4-0.93-7.45-2.78-10.33s-4.56-5.09-8.16-6.61c-3.59-1.52-7.99-2.28-13.16-2.28h-33.78v77.77
			h34.88C534.32,95.92,538.02,95.42,541.3,94.42z M511.36,32.6h14.89c3.56,0,6.22,0.74,8,2.22c1.78,1.48,2.66,3.59,2.66,6.34
			c0,1.7-0.38,3.18-1.17,4.44c-0.77,1.26-1.9,2.26-3.39,3c-1.48,0.74-3.21,1.12-5.23,1.12h-15.77V32.6z M511.36,81.48V62.93h17.66
			c2.45,0,4.54,0.36,6.28,1.05c1.74,0.71,3.09,1.72,4.06,3.05c0.96,1.34,1.44,2.97,1.44,4.89c0,2-0.44,3.74-1.32,5.23
			c-0.9,1.48-2.17,2.57-3.84,3.28c-1.67,0.71-3.68,1.05-6.05,1.05H511.36z"/>
		<path class="st0" d="M594.7,18.15l-30.44,77.77h16.45l6.16-16.33h29.83l6.11,16.33h17.11l-30.32-77.77H594.7z M591.93,66.15
			l4.44-11.78c0.59-1.7,1.23-3.44,1.89-5.22c0.66-1.78,1.29-3.61,1.89-5.5c0.59-1.88,1.16-3.72,1.71-5.52
			c0.55,1.75,1.12,3.56,1.74,5.47c0.66,2.08,1.31,4.04,1.94,5.89c0.63,1.85,1.17,3.37,1.61,4.56l4.53,12.11H591.93z"/>
		<polygon class="st0" points="691.45,81.59 678.45,81.59 678.45,32.49 691.45,32.49 691.45,18.15 648.79,18.15 648.79,32.49 
			661.79,32.49 661.79,81.59 648.79,81.59 648.79,95.92 691.45,95.92 		"/>
	</g>
	<g>
		<path class="st1" d="M385.78,126.3c-3.37-3.44-7.37-6.11-12-8c-4.62-1.89-9.8-2.83-15.49-2.83H326.4v77.77h31.89
			c5.69,0,10.88-0.94,15.55-2.83c4.66-1.89,8.66-4.56,12-8c3.32-3.45,5.89-7.56,7.67-12.33s2.66-10.02,2.66-15.72
			c0-5.78-0.88-11.03-2.66-15.77C391.73,133.83,389.15,129.74,385.78,126.3z M377.84,164.23c-0.97,2.96-2.39,5.46-4.28,7.5
			c-1.89,2.04-4.17,3.63-6.83,4.78c-2.67,1.15-5.67,1.72-9,1.72h-14.66v-47.77h14.66c3.34,0,6.33,0.57,9,1.72
			c2.66,1.15,4.94,2.76,6.83,4.83c1.89,2.08,3.31,4.58,4.28,7.5c0.96,2.93,1.44,6.21,1.44,9.83
			C379.28,157.98,378.8,161.27,377.84,164.23z"/>
		<path class="st1" d="M459.6,162.35c0,3.12-0.72,5.91-2.17,8.39c-1.44,2.48-3.4,4.46-5.89,5.94c-2.48,1.48-5.24,2.22-8.27,2.22
			c-2.97,0-5.65-0.74-8.06-2.22c-2.4-1.48-4.32-3.46-5.72-5.94c-1.41-2.48-2.12-5.27-2.12-8.39v-46.99h-16.77v47.99
			c0,5.85,1.4,11.09,4.22,15.72c2.81,4.63,6.69,8.26,11.6,10.89c4.93,2.62,10.54,3.94,16.84,3.94c6.22,0,11.79-1.32,16.72-3.94
			c4.92-2.63,8.79-6.26,11.6-10.89c2.82-4.62,4.22-9.87,4.22-15.72v-47.99H459.6V162.35z"/>
		<path class="st1" d="M547.91,136.68c0,3.18,0.04,6.13,0.11,8.83c0.07,2.7,0.17,5.26,0.28,7.67c0.11,2.4,0.26,4.74,0.44,7
			c0.18,2.26,0.39,4.48,0.61,6.67c0.06,0.56,0.14,1.16,0.2,1.74l-39.3-53.12h-14.89v77.77h16.34v-28c0-1.48-0.02-2.89-0.06-4.22
			c-0.04-1.33-0.11-2.74-0.22-4.22c-0.11-1.48-0.25-3.23-0.39-5.23c-0.15-2-0.36-4.35-0.61-7.05c-0.1-1.05-0.21-2.26-0.33-3.48
			l39.06,52.2h15.11v-77.77h-16.34V136.68z"/>
		<polygon class="st1" points="600.7,160.68 631.68,160.68 631.68,146.46 600.7,146.46 600.7,130.13 637.02,130.13 637.02,115.46 
			584.47,115.46 584.47,193.23 637.8,193.23 637.8,178.57 600.7,178.57 		"/>
		<path class="st1" d="M708.11,160.85c-1.25-2.56-3.05-4.78-5.38-6.67c-2.33-1.89-5.13-3.5-8.39-4.83
			c-3.25-1.33-6.92-2.4-10.99-3.22c-2.15-0.45-4.11-0.96-5.89-1.56c-1.78-0.59-3.3-1.28-4.56-2.05c-1.25-0.78-2.22-1.69-2.88-2.72
			s-1.01-2.22-1.01-3.55c0-1.7,0.5-3.15,1.51-4.34c0.99-1.18,2.38-2.09,4.16-2.72c1.78-0.63,3.89-0.94,6.34-0.94
			c2.22,0,4.38,0.36,6.49,1.05c2.11,0.71,4.07,1.76,5.89,3.17c1.82,1.4,3.51,3.15,5.05,5.22l10.56-10.22
			c-1.78-2.89-3.99-5.34-6.61-7.34c-2.62-2-5.72-3.53-9.27-4.61c-3.56-1.07-7.7-1.61-12.45-1.61c-3.85,0-7.49,0.55-10.94,1.66
			c-3.45,1.12-6.48,2.7-9.1,4.78c-2.64,2.07-4.69,4.54-6.17,7.39c-1.48,2.85-2.22,5.94-2.22,9.27c0,3.26,0.5,6.19,1.5,8.78
			c1.01,2.59,2.54,4.91,4.61,6.94c2.07,2.04,4.66,3.74,7.78,5.11c3.1,1.37,6.73,2.54,10.88,3.5c1.93,0.3,3.7,0.69,5.34,1.17
			c1.63,0.48,3.12,1.04,4.44,1.67c1.34,0.63,2.49,1.34,3.45,2.11c0.97,0.78,1.71,1.67,2.22,2.67c0.53,1,0.79,2.09,0.79,3.28
			c0,1.63-0.53,3.04-1.56,4.23c-1.04,1.18-2.47,2.09-4.28,2.72c-1.82,0.63-3.86,0.94-6.16,0.94c-4.23,0-8.13-0.91-11.73-2.72
			c-3.59-1.82-7.2-5.24-10.83-10.28l-10.44,11.89c2.44,3.26,5.2,6.04,8.27,8.33c3.08,2.29,6.6,4.04,10.56,5.22
			c3.96,1.18,8.35,1.78,13.16,1.78c5.92,0,11.11-0.98,15.55-2.94c4.44-1.96,7.92-4.8,10.44-8.5c2.53-3.7,3.78-8.18,3.78-13.44
			C710,166.28,709.37,163.4,708.11,160.85z"/>
	</g>
	<circle class="st0" cx="136.96" cy="136.96" r="136.96"/>
	<path class="st2" d="M100.44,112.25c18.65,14.87,30.1,22.81,48.53,37.28c12.62,9.88,27.58,20.69,41.12,40.34
		c10.4,15.1,11.21,32.61-6.22,43.56c-24.23,15.98-50.77,20.93-79.23,22.42c-1.25,0.12-2.54-0.1-4.34-0.2
		c38.59-45.74,39.56-97.5-0.33-142.72L100.44,112.25z"/>
	<path class="st1" d="M173.48,161.64c-18.65-14.87-30.1-22.81-48.53-37.28c-12.62-9.88-27.58-20.69-41.12-40.34
		c-2.8-4.07-5.09-8.55-6.37-13.34c-1.09-4.07-1.41-8.36-0.6-12.51c0.83-4.24,2.83-8.15,5.66-11.39c2.16-2.48,4.74-4.56,7.52-6.31
		c4.81-3.02,9.66-5.89,14.8-8.32c5-2.36,10.15-4.38,15.42-6.06c5.23-1.68,10.56-3.04,15.94-4.13c5.44-1.1,10.93-1.93,16.44-2.56
		c3.19-0.36,6.38-0.68,9.58-0.92c3.11-0.24,6.28-0.57,9.39-0.36c0.67,0.04,1.33,0.1,2,0.14c-38.59,45.74-39.56,97.5,0.33,142.72
		C173.79,161.19,173.64,161.42,173.48,161.64"/>
</g>
</svg>
